<?xml version="1.0" encoding="utf-8"?>
<!-- Generator: Adobe Illustrator 26.2.0, SVG Export Plug-In . SVG Version: 6.00 Build 0)  -->
<svg version="1.1" id="Layer_1" xmlns="http://www.w3.org/2000/svg" xmlns:xlink="http://www.w3.org/1999/xlink" x="0px" y="0px"
	 viewBox="0 0 863.2 559.4" style="enable-background:new 0 0 863.2 559.4;" xml:space="preserve">
<style type="text/css">
	.st0{fill:#FCB127;}
	.st1{fill:#FCD355;}
	.st2{fill:#0B9EDA;}
	.st3{fill:#75C8F0;}
	.st4{fill:#D1D3D4;}
	.st5{fill:#F1F2F2;}
	.st6{fill:#069ED9;}
	.st7{fill:#D0EEFC;}
	.st8{fill:none;}
	.st9{fill:#333333;}
</style>
<g>
	<path class="st0" d="M177.5,524.7c5.7,0,10.4-4.7,10.4-10.4v-80.6c0-11.5-9.3-20.8-20.8-20.8H73.5v111.8H177.5z"/>
	<path class="st1" d="M177.5,524.7H37.1c-5.7,0-10.4-4.7-10.4-10.4v-98.8c0-5.7,4.7-10.4,10.4-10.4h31c5,0,9.7,2.4,12.6,6.4l1,1.4
		l12,16.5c1.9,2.7,5.1,4.3,8.4,4.3H167v80.6c0,2.9,1.2,5.5,3,7.4C172.1,523.5,174.7,524.7,177.5,524.7z"/>
	<path class="st2" d="M167.1,384.3c-35.3,0-57.2,17.9-57.2,46.8v20.8h-13c-1.1,0-2,0.6-2.4,1.6s-0.2,2.1,0.6,2.8l26,26
		c0.5,0.5,1.2,0.8,1.8,0.8c0.7,0,1.3-0.3,1.8-0.8l26-26c0.7-0.7,1-1.9,0.6-2.8c-0.4-1-1.4-1.6-2.4-1.6h-13v-20.8
		c0-18.3,14.7-41.6,31.2-41.6c1.4,0,2.6-1.2,2.6-2.6C169.7,385.5,168.6,384.3,167.1,384.3z"/>
</g>
<g>
	<path class="st3" d="M377,524.2V410.1l-30.6-30.6h-77.9c-1.5,0-2.8,1.2-2.8,2.8v139.1c0,1.5,1.2,2.8,2.8,2.8H377z"/>
	<g>
		<path class="st2" d="M332.5,399h-50.1c-1.5,0-2.8-1.2-2.8-2.8s1.2-2.8,2.8-2.8h50.1c1.5,0,2.8,1.2,2.8,2.8S334.1,399,332.5,399z"
			/>
	</g>
	<g>
		<path class="st2" d="M332.5,412.9h-50.1c-1.5,0-2.8-1.2-2.8-2.8c0-1.5,1.2-2.8,2.8-2.8h50.1c1.5,0,2.8,1.2,2.8,2.8
			C335.3,411.6,334.1,412.9,332.5,412.9z"/>
	</g>
	<g>
		<path class="st2" d="M360.4,426.8h-77.9c-1.5,0-2.8-1.2-2.8-2.8c0-1.5,1.2-2.8,2.8-2.8h77.9c1.5,0,2.8,1.2,2.8,2.8
			C363.1,425.6,361.9,426.8,360.4,426.8z"/>
	</g>
	<g>
		<path class="st2" d="M360.4,440.7h-77.9c-1.5,0-2.8-1.2-2.8-2.8c0-1.5,1.2-2.8,2.8-2.8h77.9c1.5,0,2.8,1.2,2.8,2.8
			C363.1,439.5,361.9,440.7,360.4,440.7z"/>
	</g>
	<g>
		<path class="st2" d="M360.4,454.6h-77.9c-1.5,0-2.8-1.2-2.8-2.8c0-1.5,1.2-2.8,2.8-2.8h77.9c1.5,0,2.8,1.2,2.8,2.8
			C363.1,453.4,361.9,454.6,360.4,454.6z"/>
	</g>
	<g>
		<path class="st2" d="M327,468.5h-44.5c-1.5,0-2.8-1.2-2.8-2.8c0-1.5,1.2-2.8,2.8-2.8H327c1.5,0,2.8,1.2,2.8,2.8
			C329.7,467.3,328.5,468.5,327,468.5z"/>
	</g>
	<g>
		<path class="st2" d="M352,482.5h-69.6c-1.5,0-2.8-1.2-2.8-2.8s1.2-2.8,2.8-2.8H352c1.5,0,2.8,1.2,2.8,2.8S353.5,482.5,352,482.5z"
			/>
	</g>
	<g>
		<path class="st2" d="M313,496.4h-30.6c-1.5,0-2.8-1.2-2.8-2.8c0-1.5,1.2-2.8,2.8-2.8H313c1.5,0,2.8,1.2,2.8,2.8
			C315.8,495.1,314.6,496.4,313,496.4z"/>
	</g>
	<g>
		<path class="st2" d="M335.3,510.3h-52.9c-1.5,0-2.8-1.2-2.8-2.8c0-1.5,1.2-2.8,2.8-2.8h52.9c1.5,0,2.8,1.2,2.8,2.8
			C338.1,509,336.8,510.3,335.3,510.3z"/>
	</g>
	<path class="st2" d="M346.4,379.5v27.8c0,1.5,1.2,2.8,2.8,2.8H377L346.4,379.5z"/>
	<circle class="st1" cx="374.3" cy="521.4" r="30.6"/>
	<g>
		<path class="st0" d="M371.5,532.5c-0.7,0-1.4-0.3-2-0.8l-8.3-8.3c-1.1-1.1-1.1-2.8,0-3.9c1.1-1.1,2.8-1.1,3.9,0l6.2,6.2l12-14.4
			c1-1.2,2.7-1.3,3.9-0.4c1.2,1,1.3,2.7,0.4,3.9l-13.9,16.7c-0.5,0.6-1.2,1-2,1C371.6,532.5,371.5,532.5,371.5,532.5z"/>
	</g>
</g>
<g>
	<path class="st0" d="M609,424.5h-15.9c-1.8,0-3.2,1.4-3.2,3.2v19c0,1.8,1.4,3.2,3.2,3.2h25.4c1.8,0,3.2-1.4,3.2-3.2v-9.5
		C621.7,430.2,616,424.5,609,424.5z"/>
	<path class="st3" d="M596.3,408.6L567.7,380h-63.4c-1.8,0-3.2,1.4-3.2,3.2v38.1c0,1.8,1.4,3.2,3.2,3.2h15.5c1.1,0,2.1,0.6,2.7,1.5
		l14,22.4c0.6,0.9,1.6,1.5,2.7,1.5h53.9c1.8,0,3.2-1.4,3.2-3.2V408.6L596.3,408.6z"/>
	<path class="st1" d="M621.7,443.5H541l-13.1-20.9c-1.8-2.8-4.8-4.4-8.1-4.4h-34.6c-5.3,0-9.5,4.3-9.5,9.5v82.5
		c0,8.8,7.1,15.9,15.9,15.9h114.2c8.8,0,15.9-7.1,15.9-15.9V443.5z"/>
	<path class="st2" d="M513.8,395.9H555c1.8,0,3.2-1.4,3.2-3.2c0-1.8-1.4-3.2-3.2-3.2h-41.2c-1.8,0-3.2,1.4-3.2,3.2
		C510.6,394.5,512,395.9,513.8,395.9z"/>
	<path class="st2" d="M558.2,405.4c0-1.8-1.4-3.2-3.2-3.2h-41.2c-1.8,0-3.2,1.4-3.2,3.2c0,1.8,1.4,3.2,3.2,3.2H555
		C556.8,408.6,558.2,407.2,558.2,405.4z"/>
	<path class="st2" d="M583.6,418.1c0-1.8-1.4-3.2-3.2-3.2h-41.2c-1.8,0-3.2,1.4-3.2,3.2c0,1.8,1.4,3.2,3.2,3.2h41.2
		C582.2,421.3,583.6,419.9,583.6,418.1z"/>
	<path class="st2" d="M580.4,427.6h-34.9c-1.8,0-3.2,1.4-3.2,3.2c0,1.8,1.4,3.2,3.2,3.2h34.9c1.8,0,3.2-1.4,3.2-3.2
		C583.6,429,582.2,427.6,580.4,427.6z"/>
	<path class="st2" d="M567.7,380v25.4c0,1.8,1.4,3.2,3.2,3.2h25.4L567.7,380z"/>
	<path class="st2" d="M582.7,495.2L551,463.5c-1.2-1.2-3.2-1.2-4.5,0l-31.8,31.7c-0.9,0.9-1.2,2.3-0.7,3.5s1.6,2,2.9,2h15.9v38.1
		c0,1.8,1.4,3.2,3.2,3.2h25.4c1.8,0,3.2-1.4,3.2-3.2v-38.1h15.9c1.3,0,2.4-0.8,2.9-2C583.9,497.5,583.6,496.1,582.7,495.2z"/>
</g>
<g>
	<path class="st0" d="M829.8,414.3h-81.5c-0.9,0-1.7,0.5-2.1,1.3c-0.4,0.8-0.3,1.8,0.3,2.5l10.4,12.9c2.2,2.8,5.6,4.4,9.2,4.4h73.2
		c1.3,0,2.4-1,2.4-2.3v-7C841.6,419.6,836.3,414.3,829.8,414.3z"/>
	<path class="st1" d="M841.6,430.7h-75.5c-2.1,0-4.2-1-5.5-2.6l-11.8-14.7c-3.2-3.9-7.8-6.2-12.9-6.2h-33.2
		c-6.5,0-11.8,5.3-11.8,11.7v93.8c0,6.5,5.3,11.7,11.8,11.7h127.2c6.5,0,11.8-5.3,11.8-11.7L841.6,430.7L841.6,430.7z"/>
	<path class="st3" d="M825.2,508.2l-5.9-1.4l-2.8-6.7l3.2-5.2c2.3-3.6,1.7-8.2-1.3-11.2l-10.7-10.6c-3-3-7.6-3.5-11.3-1.3l-5.2,3.2
		l-6.7-2.8l-1.4-5.9c-1-4.2-4.6-7.1-8.9-7.1h-15.1c-4.3,0-7.9,2.9-8.9,7l-1.4,5.9l-6.7,2.8l-5.2-3.2c-3.6-2.2-8.3-1.7-11.3,1.3
		l-10.7,10.6c-3,3-3.5,7.6-1.3,11.2l3.2,5.2l-2.8,6.7l-5.9,1.4c-4.2,1-7.1,4.6-7.1,8.8v7.5h131v-7.5
		C832.3,512.8,829.4,509.1,825.2,508.2z"/>
	<path class="st2" d="M766.8,487.6c-20.4,0-37,16.5-37,36.9h74.1C803.8,504.2,787.2,487.6,766.8,487.6z"/>
</g>
<g>
	<circle class="st4" cx="76" cy="268.8" r="19"/>
	<g>
		<path class="st5" d="M75.3,276.4V267l-2.6,2.6l-2.6-2.7l5.8-5.7h4v15.2H75.3z"/>
	</g>
</g>
<g>
	<circle class="st4" cx="146" cy="268.8" r="19"/>
	<g>
		<path class="st5" d="M140.3,276.4v-3.6c6.5-4.9,7.1-5.5,7.1-6.6c0-0.7-0.7-1.2-1.7-1.2c-1.4,0-2.6,0.6-3.7,1.6l-2.4-3.1
			c1.6-1.9,4-2.6,6-2.6c3.7,0,6.1,2.2,6.1,5.3c0,2.1-1.1,3.8-4.9,6.2h5.1v4H140.3z"/>
	</g>
</g>
<g>
	<circle class="st4" cx="214.8" cy="268.1" r="19"/>
	<g>
		<path class="st5" d="M210.6,271.3c1.2,1,3,1.5,4.1,1.5c1.5,0,2.2-0.5,2.2-1.2c0-0.5-0.3-1-2.4-1c-0.7,0-2,0-2.2,0v-3.9
			c0.3,0,1.7,0,2.2,0c1.5,0,2.1-0.4,2.1-0.9c0-0.7-0.9-1.1-2.3-1.1c-1.3,0-2.7,0.5-3.8,1.4l-2.1-2.8c1.3-1.5,3.4-2.5,6.4-2.5
			c4.2,0,6.3,1.7,6.3,4.2c0,1.6-1.4,3.1-3.4,3.4c1.7,0.2,3.6,1.5,3.6,3.6c0,2.7-2.7,4.6-6.6,4.6c-3,0-5.3-1-6.6-2.4L210.6,271.3z"/>
	</g>
</g>
<g>
	<circle class="st4" cx="286.7" cy="268.2" r="19"/>
	<g>
		<path class="st5" d="M287,276.6v-2.4h-7.3v-3.5l5.5-9.2h6.4v8.8h1.8v4h-1.8v2.4H287V276.6z M287,265.3l-2.9,4.8h2.9V265.3z"/>
	</g>
</g>
<g>
	<circle class="st2" cx="355.6" cy="268.4" r="19"/>
	<g>
		<path class="st5" d="M354.8,276v-9.4l-2.6,2.6l-2.6-2.7l5.8-5.7h4V276H354.8z"/>
	</g>
</g>
<g>
	<circle class="st2" cx="425.6" cy="268.4" r="19"/>
	<g>
		<path class="st5" d="M419.9,276v-3.6c6.5-4.9,7.1-5.5,7.1-6.6c0-0.7-0.7-1.2-1.7-1.2c-1.4,0-2.6,0.6-3.7,1.6l-2.3-3
			c1.6-1.9,4-2.6,6-2.6c3.7,0,6.1,2.2,6.1,5.3c0,2.1-1.1,3.8-4.9,6.2h5.1v4h-11.7V276z"/>
	</g>
</g>
<g>
	<circle class="st2" cx="494.4" cy="267.7" r="19"/>
	<g>
		<path class="st5" d="M490.2,271c1.2,1,3,1.5,4.1,1.5c1.5,0,2.2-0.5,2.2-1.2c0-0.5-0.3-1-2.4-1c-0.7,0-2,0-2.2,0v-3.9
			c0.3,0,1.7,0,2.2,0c1.5,0,2.1-0.4,2.1-0.9c0-0.7-0.9-1.1-2.3-1.1c-1.3,0-2.7,0.5-3.8,1.4L488,263c1.3-1.5,3.4-2.5,6.4-2.5
			c4.2,0,6.3,1.7,6.3,4.2c0,1.6-1.4,3.1-3.4,3.4c1.7,0.2,3.6,1.5,3.6,3.6c0,2.7-2.7,4.6-6.6,4.6c-3,0-5.3-1-6.6-2.4L490.2,271z"/>
	</g>
</g>
<g>
	<circle class="st2" cx="566.2" cy="267.9" r="19"/>
	<g>
		<path class="st5" d="M566.5,276.2v-2.4h-7.3v-3.5l5.5-9.2h6.4v8.8h1.8v4h-1.8v2.3H566.5z M566.5,265l-2.9,4.8h2.9V265z"/>
	</g>
</g>
<g>
	<rect x="161.6" y="100" class="st6" width="2.9" height="4.5"/>
	<rect x="161.6" y="108.4" class="st6" width="2.9" height="4.5"/>
	<rect x="161.6" y="116.8" class="st6" width="2.9" height="4.5"/>
	<path class="st6" d="M217.7,130.9l2-2.7c0.3-0.4,0.8-0.4,1.2-0.1c0,0,0.1,0.1,0.1,0.1c0.2,0.3,0.2,0.7,0,1l-2.3,3.1
		c-0.2,0.3-0.4,0.7-0.4,1.1c0,1.8,0,4.7,0,7.7h2.3c0-6.7,0-9.1,0-10c0-0.3,0.1-0.6,0.3-0.8l0.6-0.8c0.2-0.3,0.3-0.7,0.3-1.1
		c0-0.4-0.3-0.8-0.6-1c-0.2-0.1-4.7-6-4.7-6c-0.5-0.5-0.4-1.3,0.1-1.8c0.5-0.5,1.3-0.4,1.8,0.1c0.1,0.1,0.1,0.1,0.2,0.2l3.1,4.1
		c0.9,1.2,2.6,1.5,3.9,0.5c0.2-0.2,0.4-0.3,0.5-0.5l3.1-4.1c0.4-0.6,1.2-0.7,1.7-0.3c0,0,0,0,0,0c0.6,0.4,0.7,1.2,0.3,1.8l-3.6,4.8
		c-0.4,0.5-0.6,1.1-0.6,1.7c0,3,0,8.1,0,13.1h13.8c-0.8-36.9-31.3-66.1-68.2-65.3c-35.8,0.8-64.6,29.6-65.3,65.3h11v-7.3
		c-3.5-0.5-5.9-3.7-5.4-7.1s3.7-5.9,7.1-5.4s5.9,3.7,5.4,7.1c-0.4,2.8-2.6,5-5.4,5.4v7.4h11v-4.1c-2.6-0.2-4.9-1.6-6.4-3.7
		c3.2-3,3.5-8,0.6-11.3c1.8-2.9,3.8-5.7,6-8.3c0.3-0.4,0.8-0.4,1.2-0.1c0,0,0.1,0.1,0.1,0.1c5.5,6.5,8.2,11.2,8.2,14.5
		c0,4.6-3.5,8.4-8,8.8v4.1h11.3v-25.9h10.2V92.7h18.2v22.6h18.1v10.3h10.4v15.5h4.9c0-2.9,0-10.4,0-13.1c0-0.6-0.2-1.2-0.6-1.7
		l-3.6-4.8c-0.4-0.6-0.3-1.3,0.3-1.8c0.5-0.4,1.3-0.3,1.7,0.2c0,0,0,0,0,0l3.1,4.1c0.9,1.2,2.6,1.5,3.8,0.6c0.2-0.2,0.4-0.4,0.6-0.6
		l3.1-4.1c0.4-0.6,1.2-0.7,1.8-0.2c0.6,0.4,0.7,1.2,0.2,1.8c0,0-4.5,5.8-4.7,6c-0.6,0.5-0.8,1.4-0.3,2l0.6,0.7
		c0.2,0.2,0.3,0.5,0.3,0.8v0.9c0,0,0,0.1,0,0.1v8.9h2.3c0-4.2,0-6.5,0-7.7c0-0.4-0.1-0.8-0.4-1.1l-2.3-3.1c-0.3-0.4-0.2-0.9,0.2-1.2
		c0.4-0.3,0.9-0.2,1.2,0.2l2,2.7c0.6,0.8,1.7,1,2.5,0.4C217.4,131.2,217.5,131.1,217.7,130.9L217.7,130.9z M223.8,119.7
		c1.4,0,2.5,1.1,2.5,2.5s-1.1,2.5-2.5,2.5c-1.4,0-2.5-1.1-2.5-2.5l0,0C221.3,120.9,222.4,119.8,223.8,119.7z M199,90.8l2.3-2.3
		c0.5-0.5,1.2-0.5,1.7-0.1c0.5,0.5,0.5,1.2,0.1,1.7c0,0,0,0-0.1,0.1l-2.3,2.3c-0.2,0.2-0.5,0.3-0.9,0.3c-0.3,0-0.6-0.1-0.9-0.4
		C198.6,92.1,198.6,91.3,199,90.8C199,90.9,199,90.9,199,90.8z M191,85.3c0-0.7,0.5-1.2,1.2-1.2c0.7,0,1.2,0.5,1.2,1.2c0,0,0,0,0,0
		v3.2c0,0.7-0.5,1.2-1.2,1.2c-0.7,0-1.2-0.5-1.2-1.2c0,0,0,0,0,0V85.3z M181.5,88.6c0.5-0.5,1.2-0.5,1.7,0l2.3,2.3
		c0.5,0.5,0.5,1.2,0,1.7c-0.5,0.5-1.2,0.5-1.7,0l-2.3-2.3C181,89.8,181,89.1,181.5,88.6C181.4,88.6,181.4,88.6,181.5,88.6
		L181.5,88.6z M176.9,99.3c0-0.7,0.5-1.2,1.2-1.2h3.2c0.7-0.1,1.3,0.4,1.3,1.1c0.1,0.7-0.4,1.3-1.1,1.3c-0.1,0-0.1,0-0.2,0h-3.2
		C177.5,100.5,176.9,100,176.9,99.3z M185.4,107.9l-2.3,2.3c-0.2,0.2-0.5,0.3-0.9,0.3c-0.3,0-0.6-0.1-0.9-0.3
		c-0.5-0.5-0.5-1.2,0-1.7l2.3-2.3c0.5-0.5,1.2-0.5,1.7,0C185.9,106.6,185.9,107.4,185.4,107.9L185.4,107.9z M193.4,113.4
		c0,0.7-0.5,1.2-1.2,1.2c-0.7,0-1.2-0.5-1.2-1.2c0,0,0,0,0,0v-3.2c0-0.7,0.5-1.2,1.2-1.2c0.7,0,1.2,0.5,1.2,1.2V113.4z M192.2,106.3
		c-3.9,0-7-3.1-7-7s3.1-7,7-7s7,3.1,7,7C199.2,103.2,196.1,106.3,192.2,106.3L192.2,106.3z M203,110.1c-0.2,0.2-0.5,0.3-0.9,0.3
		c-0.3,0-0.6-0.1-0.9-0.3l-2.3-2.3c-0.5-0.5-0.5-1.2,0-1.7c0.5-0.5,1.2-0.5,1.7,0l2.3,2.3C203.5,108.9,203.5,109.6,203,110.1
		L203,110.1z M203,100.6c-0.7-0.1-1.2-0.7-1.1-1.3c0.1-0.6,0.5-1.1,1.1-1.1h3.2c0.7,0.1,1.2,0.7,1.1,1.3c-0.1,0.6-0.5,1.1-1.1,1.1
		H203z M208.7,124.7c-1.4,0-2.5-1.1-2.5-2.5s1.1-2.5,2.5-2.5c1.4,0,2.5,1.1,2.5,2.5l0,0C211.2,123.6,210.1,124.7,208.7,124.7z
		 M214.6,129.7c0-0.9,0.7-1.6,1.6-1.6s1.6,0.7,1.6,1.6s-0.7,1.6-1.6,1.6l0,0C215.3,131.3,214.6,130.6,214.6,129.7L214.6,129.7z"/>
	<rect x="161.6" y="133.7" class="st6" width="2.9" height="4.5"/>
	<rect x="161.6" y="125.3" class="st6" width="2.9" height="4.5"/>
	<rect x="174" y="133.7" class="st6" width="2.9" height="4.5"/>
	<rect x="181" y="133.7" class="st6" width="2.9" height="4.5"/>
	<rect x="181" y="125.3" class="st6" width="2.9" height="4.5"/>
	<rect x="174" y="125.3" class="st6" width="2.9" height="4.5"/>
	<path class="st6" d="M123.6,91.2c-13.4,13.1-21.2,31.1-21.5,49.9l5.1,0.1c0.8-36.9,31.3-66.1,68.2-65.3
		c35.8,0.8,64.6,29.6,65.3,65.3l5-0.1c-0.3-18.8-8.1-36.7-21.5-49.9C196.3,63.7,151.5,63.7,123.6,91.2L123.6,91.2z"/>
	<path class="st7" d="M172.6,36.3V24.5c-64.4,0-116.7,52.2-116.7,116.7c0,0,0,0,0,0h11.9C67.8,83.3,114.7,36.3,172.6,36.3
		L172.6,36.3z"/>
	<path class="st3" d="M172.6,60.1V48.2c-51.3,0-93,41.6-93,92.9c0,0,0,0.1,0,0.1h11.9C91.5,96.4,127.8,60.1,172.6,60.1
		C172.6,60.1,172.6,60.1,172.6,60.1z"/>
	<path class="st6" d="M216.7,137.8c0-0.2-0.3-0.4-0.5-0.4c-0.2,0-0.3,0.2-0.4,0.4v3.4h0.9V137.8z"/>
	<path class="st6" d="M223.1,134.7v6.4h1.3v-6.4c0-0.4-0.3-0.6-0.7-0.6C223.4,134.1,223.1,134.4,223.1,134.7z"/>
	<path class="st6" d="M131.7,129.5c-0.5,0-0.8,0.4-0.8,0.8v6.7c0.6,0.1,1.1,0.1,1.7,0v-6.7C132.5,129.9,132.1,129.5,131.7,129.5z"/>
	<path class="st6" d="M209.3,134.7c0-0.4-0.3-0.6-0.6-0.6c0,0,0,0,0,0c-0.4,0-0.6,0.3-0.6,0.6v6.4h1.3V134.7z"/>
	<path class="st8" d="M454.6,103.4c-0.9-0.9-2-1.6-3.1-2.1c-2.5-1-5.2-1-7.7,0c-1.2,0.5-2.2,1.2-3.1,2.1c-0.9,0.9-1.6,2-2.1,3.2
		c-0.5,1.2-0.8,2.5-0.8,3.8v9.9h19.8v-9.9c0-1.3-0.3-2.6-0.8-3.8C456.2,105.4,455.5,104.4,454.6,103.4z"/>
	<path class="st9" d="M288.7,120.3c0,1.3-0.3,2.6-0.8,3.8c-0.5,1.2-1.2,2.2-2.1,3.1c-1.9,1.9-4.4,2.9-7,2.9c-1.3,0-2.6-0.3-3.8-0.8
		c-1.2-0.5-2.3-1.2-3.2-2.1c-0.9-0.9-1.6-2-2.1-3.1c-0.5-1.2-0.8-2.5-0.8-3.8V90.7h-9.8v29.7c0,2.7,0.5,5.3,1.6,7.7
		c2,4.7,5.7,8.5,10.4,10.5c4.9,2.1,10.5,2.1,15.4,0c2.3-1,4.5-2.4,6.3-4.2c1.8-1.8,3.2-3.9,4.2-6.3c1-2.4,1.6-5.1,1.6-7.7V90.7h-9.9
		L288.7,120.3z"/>
	<polygon class="st9" points="340.4,123.2 321.3,90.7 310.7,90.7 310.7,140.1 320.6,140.1 320.6,107.5 339.7,140.1 350.3,140.1 
		350.3,90.7 340.4,90.7 	"/>
	<rect x="363" y="90.7" class="st9" width="9.9" height="49.4"/>
	<polygon class="st9" points="381.6,100.5 396.4,100.5 396.4,140.1 406.3,140.1 406.3,100.5 421.1,100.5 421.1,90.7 381.6,90.7 	"/>
	<path class="st9" d="M461.6,96.4c-1.8-1.8-3.9-3.2-6.3-4.2c-4.9-2.1-10.5-2.1-15.4,0c-2.3,1-4.5,2.4-6.3,4.2
		c-1.8,1.8-3.2,4-4.2,6.3c-1,2.4-1.6,5.1-1.5,7.7v29.6h9.9v-9.9h19.8v9.9h9.9v-29.6c0-2.6-0.5-5.3-1.6-7.7
		C464.8,100.4,463.4,98.3,461.6,96.4z M457.5,120.3h-19.8v-9.9c0-1.3,0.3-2.6,0.8-3.8c0.5-1.2,1.2-2.2,2.1-3.2
		c0.9-0.9,2-1.6,3.1-2.1c2.5-1,5.2-1,7.7,0c2.4,1,4.3,2.9,5.3,5.3c0.5,1.2,0.8,2.5,0.8,3.8L457.5,120.3z"/>
	<path class="st9" d="M508.6,130c-2,0.8-4.1,1.3-6.2,1.3c-2.1,0-4.2-0.4-6.1-1.2c-1.9-0.8-3.6-1.9-5-3.4c-1.4-1.4-2.6-3.1-3.4-5
		c-0.8-1.9-1.3-4-1.2-6.1c0-2.1,0.4-4.2,1.2-6.1c0.8-1.9,1.9-3.6,3.4-5c1.4-1.4,3.1-2.6,5-3.3c1.9-0.8,4-1.3,6.1-1.2
		c2.1,0,4.2,0.4,6.2,1.3c1.9,0.8,3.7,2.1,5.1,3.6l5.2-8.6c-2.3-2-4.9-3.5-7.7-4.6c-2.8-1-5.8-1.6-8.9-1.6c-2.3,0-4.6,0.3-6.8,0.9
		c-8.7,2.4-15.5,9.2-17.9,17.9c-1.2,4.4-1.2,9.1,0,13.6c1.2,4.3,3.5,8.2,6.6,11.3c3.1,3.1,7,5.4,11.3,6.6c2.2,0.6,4.5,0.9,6.8,0.9
		c6.1,0,12-2.2,16.6-6.1l-5.2-8.6C512.3,127.9,510.5,129.2,508.6,130z"/>
	<path class="st9" d="M259.1,60.3h1.2v7.3h10v-7.3h1.2V76h-1.2v-7.3h-10.1V76h-1.2V60.3z"/>
	<path class="st9" d="M293.3,60.2h1.1l7.3,15.8h-1.3l-2-4.4h-9.3l-2,4.4H286L293.3,60.2z M298,70.5l-4.1-9.1l-4.1,9.1H298z"/>
	<path class="st9" d="M316.3,60.3h1.1l6.3,9.3l6.3-9.3h1.1V76H330V62.4l-6.2,9h-0.1l-6.2-9V76h-1.1V60.3z"/>
	<path class="st9" d="M347,60.3h6.5c3.1,0,5.1,1.5,5.1,3.9c0,1.7-1.1,3.2-2.7,3.7c1.9,0.5,3.5,1.6,3.5,3.8c0,2.6-2.2,4.3-5.6,4.3
		H347V60.3z M353.3,67.5c2.4,0,4-1.2,4-3.3c0-1.7-1.4-2.9-3.9-2.9h-5.3v6.2H353.3z M353.9,74.9c2.7,0,4.4-1.2,4.4-3.3
		s-1.7-3.1-4.8-3.1h-5.3v6.3L353.9,74.9z"/>
	<path class="st9" d="M374.2,69.5v-9.2h1.2v9.1c0,3.7,2,5.8,5.3,5.8s5.2-1.9,5.2-5.7v-9.2h1.2v9c0,4.5-2.6,6.9-6.4,6.9
		S374.2,73.9,374.2,69.5z"/>
	<path class="st9" d="M402.7,60.3h6.6c1.6-0.1,3.2,0.5,4.4,1.5c0.8,0.8,1.2,1.9,1.2,3c0,2.6-2,4.1-4.6,4.5l5.2,6.7H414l-5-6.5h-5.1
		V76h-1.2L402.7,60.3z M409.1,68.4c2.6,0,4.6-1.3,4.6-3.6c0-2.1-1.7-3.4-4.5-3.4h-5.4v7.1H409.1z"/>
	<path class="st9" d="M429.4,68.1c-0.2-4.3,3.2-8,7.6-8.1c0.1,0,0.1,0,0.2,0c2.1-0.1,4.2,0.7,5.8,2.1l-0.8,0.9
		c-1.4-1.3-3.2-1.9-5-1.9c-3.8,0-6.5,3.2-6.5,7.1c0,4.1,2.5,7.1,6.7,7.1c1.8,0,3.6-0.6,5-1.8v-4.5h-5.3v-1.1h6.4v6.1
		c-1.7,1.5-3.9,2.3-6.2,2.3C432.4,76.3,429.4,72.6,429.4,68.1z"/>
</g>
</svg>
